PathFileType	4	(X/Y/Z)	pose_F01_0-97.trc
DataRate	CameraRate	NumFrames	NumMarkers	Units	OrigDataRate	OrigDataStartFrame	OrigNumFrames
60	60	5	21	m	60	72	97
Frame#	Time	CHip			RHip			RKnee			RAnkle			RBigToe			RSmallToe			RHeel			LHip			LKnee			LAnkle			LBigToe			LSmallToe			LHeel			Neck			Nose			RShoulder			RElbow			RWrist			LShoulder			LElbow			LWrist			
		X1	Y1	Z1	X2	Y2	Z2	X3	Y3	Z3	X4	Y4	Z4	X5	Y5	Z5	X6	Y6	Z6	X7	Y7	Z7	X8	Y8	Z8	X9	Y9	Z9	X10	Y10	Z10	X11	Y11	Z11	X12	Y12	Z12	X13	Y13	Z13	X14	Y14	Z14	X15	Y15	Z15	X16	Y16	Z16	X17	Y17	Z17	X18	Y18	Z18	X19	Y19	Z19	X20	Y20	Z20	X21	Y21	Z21	
72	1.2	-0.1752512744997405	1.8177166666068367	-0.5280055252744393	-0.18597205775701503	1.813723349254476	-0.46233328903704957	-0.2009048768777184	1.6757432642026224	-0.44177389343995227	-0.34495044188022944	1.572220395376698	-0.5168281292876741	-0.28367235936083984	1.5291750024250224	-0.5409444730114613	-0.21008242794478243	1.5116931989910092	-0.35035489402950626	-0.4819780887658177	1.5393766824115518	-0.9668033884165393	-0.16645777365937675	1.8197236224471267	-0.5853927866187286	-0.1685552017820909	1.6821679514247196	-0.5584832550015831	-0.24947342236511336	1.5384958399866855	-0.5240607035241428	-0.35152076211316163	1.514110300416362	-1.048180050711928	-0.34676915498643635	1.523902071143449	-1.0344293003277045	-0.4048451767261316	1.5387190570213976	-0.9912069379363051	-0.17044052825618963	1.9818343098970566	-0.5570508790095716	-0.12057357100795345	2.0495540919618076	-0.580963059622166	-0.17375210551656498	1.9814359744178707	-0.4753044992595179	-0.18258316622017087	1.8983806584044502	-0.42136770638604154	-0.11989664392152943	1.843720845689043	-0.4382747837496049	-0.15690569350091768	1.9833714229766792	-0.6467085840656053	-0.16343749507162594	1.9011733158183195	-0.6653161395470517	-0.12925611130564285	1.8295950768494067	-0.6965946005832948
73	1.2166666666666666	-0.17903463530760488	1.8147949624769006	-0.5194865478578775	-0.193714618957873	1.810149387154299	-0.4490802445294923	-0.21011092573944584	1.6741974014559444	-0.43563696891704523	-0.24212692685606632	1.536704495246685	-0.39249612199320666	-0.1939943730551776	1.4989468896896592	-0.3707673366910299	-0.20755242545240468	1.5032649831637428	-0.35077982414944153	-0.25634197829588495	1.525983156120202	-0.3948553154631695	-0.16829614878321117	1.8169482262847034	-0.5792217538032478	-0.17012414630825762	1.6830404682932865	-0.5610598446198567	-0.24947342236511336	1.5384958399866855	-0.5240607035241428	-0.35152076211316163	1.514110300416362	-1.048180050711928	-0.34676915498643635	1.523902071143449	-1.0344293003277045	-0.4048451767261316	1.5387190570213976	-0.9912069379363051	-0.17260651413822173	1.980530021666448	-0.554593416407819	-0.12512519354756813	2.0487026573693283	-0.5676273508636742	-0.1838372331953014	1.9788445769977259	-0.46383304170240863	-0.1923642403845656	1.8927536777268332	-0.40909425135086624	-0.13798867616565863	1.8307260657520505	-0.4155775549283381	-0.16048850054774996	1.9834487354497699	-0.639365442758434	-0.16134050081111165	1.8992114265985935	-0.6639173395045312	-0.12921876369691276	1.8262728504905497	-0.6928272509696878
74	1.2333333333333334	-0.18717612324540073	1.8139867818346107	-0.5065253050261921	-0.19545951539064227	1.810891272481196	-0.44317907912032134	-0.21701511232691792	1.6748976904102961	-0.4279519298104297	-0.2512468658005102	1.5346186835084141	-0.3821646339961328	-0.20004474229273742	1.4983313191589318	-0.36846143276022664	-0.21394126743865408	1.5020227093064782	-0.34796947807556133	-0.26286065371660094	1.5224305137137715	-0.3914061384498962	-0.17334552427196967	1.8158685393863196	-0.5740344326102347	-0.17339247850287892	1.6810487710443924	-0.5616806385056287	-0.24947342236511336	1.5384958399866855	-0.5240607035241428	-0.35152076211316163	1.514110300416362	-1.048180050711928	-0.34676915498643635	1.523902071143449	-1.0344293003277045	-0.4048451767261316	1.5387190570213976	-0.9912069379363051	-0.17908205200805635	1.9801837414757097	-0.5390694171849291	-0.1256008767735288	2.04877578338026	-0.558976084101849	-0.1858399846159188	1.9783633388826753	-0.45277397422379406	-0.19825409013629422	1.8900061508036776	-0.4020154574060656	-0.15503914206192515	1.8260981119151627	-0.3995256137356268	-0.1684300888913734	1.9831204761434211	-0.6272183180750187	-0.16414314224973117	1.8941270955212497	-0.6609666469683246	-0.1354363392709151	1.8162113319229032	-0.6858949780172402
75	1.25	-0.19227251063506426	1.806779876347395	-0.4952993171605152	-0.2065097472858289	1.8020035283677744	-0.42494257031658106	-0.2199431363845763	1.6675316858667688	-0.42360638264340733	-0.2531917264077827	1.5346463650288265	-0.38004928079624867	-0.19900230797049306	1.4983138684002366	-0.36507007940043285	-0.2148948913535341	1.502301462411437	-0.34246724474976303	-0.2651960871805688	1.519160892805632	-0.38808283960561824	-0.18294234272697346	1.8085912974252671	-0.5582770921947442	-0.1807553265310007	1.6771467630402581	-0.5490363940076297	-0.24947342236511336	1.5384958399866855	-0.5240607035241428	-0.35152076211316163	1.514110300416362	-1.048180050711928	-0.34676915498643635	1.523902071143449	-1.0344293003277045	-0.4048451767261316	1.5387190570213976	-0.9912069379363051	-0.18650324143709796	1.9783007262106767	-0.5267515066070688	-0.13976947510120008	2.046057257970649	-0.5424553476990644	-0.19873393913022389	1.974160859385561	-0.43348494669044374	-0.20494816928358206	1.8853560134228078	-0.3887379575753011	-0.16168522012697817	1.8110171874552206	-0.39924514181440246	-0.1769102405627484	1.9809252156941264	-0.6175354231272675	-0.17651263816809698	1.8923879706655764	-0.6435690925420964	-0.14913750727173622	1.8134718994095826	-0.6627877120446453
76	1.2666666666666666	-0.20408029554844415	1.8058165614187143	-0.48171038315499387	-0.21015171693820797	1.8008776155648365	-0.42046619178935496	-0.2196248298815232	1.666781884986579	-0.4239053065857618	-0.25318430977830403	1.5343838311337785	-0.38002532701824476	-0.20165999430807632	1.496749108207857	-0.3662958913283636	-0.2157732881010032	1.5012003750148475	-0.3457101250122124	-0.2650951884266498	1.5185560780160634	-0.38805053202332995	-0.1908177708936324	1.8088245637377363	-0.5493017032467843	-0.18354079483961713	1.6777818411547614	-0.5504403664427652	-0.24947342236511336	1.5384958399866855	-0.5240607035241428	-0.35152076211316163	1.514110300416362	-1.048180050711928	-0.34676915498643635	1.523902071143449	-1.0344293003277045	-0.4048451767261316	1.5387190570213976	-0.9912069379363051	-0.19859457474814765	1.9792332778593977	-0.5130266122647303	-0.14096695722169422	2.047938605709932	-0.5366301640178979	-0.20456528637789942	1.9767898985590162	-0.42709567658551284	-0.21216321635277824	1.8843929986041006	-0.3853855733150147	-0.18847590085661667	1.8060332264430652	-0.3772566585150598	-0.18655105882113743	1.9811487928290987	-0.6030084426334967	-0.18225945716687852	1.8895180892602195	-0.6328776362768849	-0.16570741700307715	1.810796540544286	-0.6403636107211225
